<svg xmlns="http://www.w3.org/2000/svg" width="1600" height="900" viewBox="0 0 1600 900">
  <defs>
    <linearGradient id="bg" x1="0" y1="0" x2="1" y2="1"><stop offset="0" stop-color="#050712"/><stop offset="1" stop-color="#0A0F1F"/></linearGradient>
    <filter id="glow"><feGaussianBlur stdDeviation="3.5" result="blur"/><feMerge><feMergeNode in="blur"/><feMergeNode in="SourceGraphic"/></feMerge></filter>
    <marker id="arrowCyan" viewBox="0 0 10 10" refX="8" refY="5" markerWidth="7" markerHeight="7" orient="auto-start-reverse"><path d="M 0 0 L 10 5 L 0 10 z" fill="#00E5FF"/></marker>
    <marker id="arrowPurple" viewBox="0 0 10 10" refX="8" refY="5" markerWidth="7" markerHeight="7" orient="auto-start-reverse"><path d="M 0 0 L 10 5 L 0 10 z" fill="#B45CFF"/></marker>
    <style>
      .title { font-family: Inter, Arial, sans-serif; font-weight: 800; fill: #F5F7FF; letter-spacing: 1px; }
      .sub { font-family: Inter, Arial, sans-serif; font-weight: 700; fill: #00E5FF; letter-spacing: 1.2px; }
      .h { font-family: Inter, Arial, sans-serif; font-weight: 800; fill: #F5F7FF; }
      .body { font-family: Inter, Arial, sans-serif; fill: #A7B4C8; font-size: 15px; }
      .small { font-family: Inter, Arial, sans-serif; fill: #A7B4C8; font-size: 12px; }
      .tiny { font-family: Inter, Arial, sans-serif; fill: #A7B4C8; font-size: 10px; }
      .cyan { fill: #00E5FF; } .purple { fill: #B45CFF; } .green { fill:#00C853; } .amber { fill:#FFAB00; } .red { fill:#FF1744; }
      .box { fill: rgba(11,18,38,.82); stroke: #26324A; stroke-width: 1.2; rx: 14; }
      .purpleBox { fill: rgba(36,10,58,.55); stroke: #B45CFF; stroke-width: 1.5; rx: 14; }
      .cyanBox { fill: rgba(0,47,71,.48); stroke: #00E5FF; stroke-width: 1.5; rx: 14; }
      .greenBox { fill: rgba(0,55,26,.42); stroke: #00C853; stroke-width: 1.5; rx: 14; }
    </style>
  </defs>
  <rect width="1600" height="900" fill="url(#bg)"/>
  <g opacity="0.12">
    <path d="M0 725 C300 650 500 760 800 700 S1300 650 1600 730" stroke="#00E5FF" fill="none"/>
    <path d="M0 180 C250 125 520 220 800 160 S1250 120 1600 170" stroke="#B45CFF" fill="none"/>
  </g>
  <text x="800" y="48" font-size="34" text-anchor="middle" class="title">RESONANCE ENGINE + RT9.1 | ENTERPRISE BLUEPRINT v2.0</text>
  <text x="800" y="80" font-size="18" text-anchor="middle" class="sub">GOVERNANCE-FIRST ARCHITECTURE - THE BRAIN DEFINES TRUTH. THE SYSTEM ENFORCES IT.</text>
  <rect x="24" y="112" width="232" height="680" class="box"/>
  <line x1="70" y1="160" x2="70" y2="740" stroke="#A7B4C8" stroke-width="2" opacity=".55" marker-end="url(#arrowCyan)"/>
  <rect x="42" y="132" width="34" height="34" fill="none" stroke="#B45CFF"/><text x="59" y="157" text-anchor="middle" font-size="24" class="purple">1</text>
  <text x="92" y="148" font-size="18" class="h purple">SOVEREIGN CORE</text><text x="92" y="178" class="body">Intelligence and</text><text x="92" y="198" class="body">governance.</text><text x="92" y="238" class="body">Defines truth,</text><text x="92" y="258" class="body">coherence, policy,</text><text x="92" y="278" class="body">and adaptive logic.</text>
  <rect x="42" y="340" width="34" height="34" fill="none" stroke="#00E5FF"/><text x="59" y="365" text-anchor="middle" font-size="24" class="cyan">2</text>
  <text x="92" y="354" font-size="18" class="h cyan">EXECUTION</text><text x="92" y="376" font-size="18" class="h cyan">ARCHITECTURE</text><text x="92" y="414" class="body">Carries out decisions</text><text x="92" y="434" class="body">defined by the</text><text x="92" y="454" class="body">Resonance Engine.</text>
  <rect x="42" y="552" width="34" height="34" fill="none" stroke="#2DFFD2"/><text x="59" y="577" text-anchor="middle" font-size="24" fill="#2DFFD2">3</text>
  <text x="92" y="566" font-size="18" class="h" fill="#2DFFD2">ENFORCEMENT</text><text x="92" y="588" font-size="18" class="h" fill="#2DFFD2">BOUNDARY</text><text x="92" y="626" class="body">Zero-trust</text><text x="92" y="646" class="body">enforcement at</text><text x="92" y="666" class="body">the system edge.</text>
  <rect x="290" y="110" width="950" height="210" class="purpleBox" filter="url(#glow)"/>
  <text x="765" y="138" font-size="25" text-anchor="middle" class="h purple">RESONANCE ENGINE <tspan font-size="16" fill="#F5F7FF">(SOVEREIGN CORE)</tspan></text>
  <text x="765" y="164" font-size="15" text-anchor="middle" fill="#F5F7FF">Governance intelligence that validates truth and ensures coherence</text>
  <g transform="translate(322,184)">
    <rect x="0" y="0" width="124" height="86" rx="10" fill="#100A22" stroke="#B45CFF" opacity=".9"/><text x="62" y="30" text-anchor="middle" font-size="14" class="h">TRUTH</text><text x="62" y="52" text-anchor="middle" class="tiny">Establish</text><text x="62" y="68" text-anchor="middle" class="tiny">ground truth</text>
    <rect x="135" y="0" width="124" height="86" rx="10" fill="#100A22" stroke="#B45CFF" opacity=".9"/><text x="197" y="30" text-anchor="middle" font-size="14" class="h">COHERENCE</text><text x="197" y="52" text-anchor="middle" class="tiny">Ensure system</text><text x="197" y="68" text-anchor="middle" class="tiny">alignment</text>
    <rect x="270" y="0" width="124" height="86" rx="10" fill="#100A22" stroke="#B45CFF" opacity=".9"/><text x="332" y="30" text-anchor="middle" font-size="14" class="h">THREAT</text><text x="332" y="52" text-anchor="middle" class="tiny">Classify</text><text x="332" y="68" text-anchor="middle" class="tiny">emerging risk</text>
    <rect x="405" y="0" width="124" height="86" rx="10" fill="#100A22" stroke="#B45CFF" opacity=".9"/><text x="467" y="30" text-anchor="middle" font-size="14" class="h">ADAPTIVE</text><text x="467" y="52" text-anchor="middle" class="tiny">Learn and</text><text x="467" y="68" text-anchor="middle" class="tiny">evolve safely</text>
    <rect x="540" y="0" width="124" height="86" rx="10" fill="#100A22" stroke="#B45CFF" opacity=".9"/><text x="602" y="30" text-anchor="middle" font-size="14" class="h">POLICY</text><text x="602" y="52" text-anchor="middle" class="tiny">Create refined</text><text x="602" y="68" text-anchor="middle" class="tiny">control rules</text>
  </g>
  <rect x="1050" y="134" width="160" height="150" rx="12" fill="#051D1B" stroke="#2DFFD2"/>
  <text x="1130" y="160" font-size="15" text-anchor="middle" class="h">POLICY OUTPUT</text><text x="1130" y="184" text-anchor="middle" class="small">Authoritative state</text><text x="1072" y="212" class="small green">✓ Allow / block rules</text><text x="1072" y="234" class="small green">✓ Friction thresholds</text><text x="1072" y="256" class="small green">✓ Risk scores</text>
  <line x1="765" y1="322" x2="765" y2="355" stroke="#B45CFF" stroke-width="5" marker-end="url(#arrowPurple)"/><text x="795" y="342" font-size="14" class="purple">Authoritative policy and intelligence feed</text>
  <rect x="290" y="360" width="950" height="205" class="cyanBox"/><text x="765" y="392" font-size="24" text-anchor="middle" class="h cyan">RT9.1 EXECUTION ARCHITECTURE</text><text x="765" y="418" font-size="15" text-anchor="middle" fill="#F5F7FF">Executes Resonance Engine decisions with deterministic control</text>
  <g transform="translate(306,438)">
    <rect x="0" y="0" width="140" height="92" rx="10" fill="#07152A" stroke="#00E5FF" opacity=".9"/><text x="70" y="30" text-anchor="middle" font-size="14" class="h">POLICY INGEST</text><text x="70" y="53" text-anchor="middle" class="tiny">Receive policy</text><text x="70" y="69" text-anchor="middle" class="tiny">from sovereign core</text>
    <rect x="150" y="0" width="140" height="92" rx="10" fill="#07152A" stroke="#00E5FF" opacity=".9"/><text x="220" y="30" text-anchor="middle" font-size="14" class="h">VALIDATION</text><text x="220" y="53" text-anchor="middle" class="tiny">Signature nonce</text><text x="220" y="69" text-anchor="middle" class="tiny">schema context</text>
    <rect x="300" y="0" width="140" height="92" rx="10" fill="#07152A" stroke="#00E5FF" opacity=".9"/><text x="370" y="30" text-anchor="middle" font-size="14" class="h">DECISION</text><text x="370" y="53" text-anchor="middle" class="tiny">PASS SOFT</text><text x="370" y="69" text-anchor="middle" class="tiny">HARD BLOCK</text>
    <rect x="450" y="0" width="140" height="92" rx="10" fill="#07152A" stroke="#00E5FF" opacity=".9"/><text x="520" y="30" text-anchor="middle" font-size="14" class="h">EXECUTION</text><text x="520" y="53" text-anchor="middle" class="tiny">Apply control</text><text x="520" y="69" text-anchor="middle" class="tiny">directives</text>
    <rect x="600" y="0" width="140" height="92" rx="10" fill="#07152A" stroke="#00E5FF" opacity=".9"/><text x="670" y="30" text-anchor="middle" font-size="14" class="h">OBSERVE</text><text x="670" y="53" text-anchor="middle" class="tiny">Metrics alerts</text><text x="670" y="69" text-anchor="middle" class="tiny">telemetry</text>
    <rect x="750" y="0" width="140" height="92" rx="10" fill="#07152A" stroke="#00E5FF" opacity=".9"/><text x="820" y="30" text-anchor="middle" font-size="14" class="h">WORM AUDIT</text><text x="820" y="53" text-anchor="middle" class="tiny">Immutable</text><text x="820" y="69" text-anchor="middle" class="tiny">event record</text>
  </g>
  <line x1="765" y1="568" x2="765" y2="600" stroke="#00E5FF" stroke-width="5" marker-end="url(#arrowCyan)"/><text x="800" y="590" font-size="14" class="cyan">Enforcement directives</text>
  <rect x="290" y="604" width="950" height="150" rx="14" fill="rgba(0,50,52,.38)" stroke="#2DFFD2" stroke-width="1.5"/><text x="765" y="632" font-size="22" text-anchor="middle" fill="#2DFFD2" font-family="Arial" font-weight="800">ZTB-NATOHEX GATEWAY (ENFORCEMENT BOUNDARY)</text><text x="765" y="656" font-size="14" text-anchor="middle" fill="#F5F7FF">Enforces policy at the boundary. Does not determine truth.</text>
  <g transform="translate(318,678)">
    <rect x="0" y="0" width="82" height="48" rx="8" fill="#061C20" stroke="#2DFFD2" opacity=".9"/><text x="41" y="22" text-anchor="middle" class="tiny">Tenant</text><text x="41" y="36" text-anchor="middle" class="tiny">Validation</text><rect x="91" y="0" width="82" height="48" rx="8" fill="#061C20" stroke="#2DFFD2" opacity=".9"/><text x="132" y="22" text-anchor="middle" class="tiny">Identity</text><text x="132" y="36" text-anchor="middle" class="tiny">AuthN/Z</text><rect x="182" y="0" width="82" height="48" rx="8" fill="#061C20" stroke="#2DFFD2" opacity=".9"/><text x="223" y="22" text-anchor="middle" class="tiny">Signature</text><text x="223" y="36" text-anchor="middle" class="tiny">Verify</text><rect x="273" y="0" width="82" height="48" rx="8" fill="#061C20" stroke="#2DFFD2" opacity=".9"/><text x="314" y="22" text-anchor="middle" class="tiny">Nonce</text><text x="314" y="36" text-anchor="middle" class="tiny">Timestamp</text><rect x="364" y="0" width="82" height="48" rx="8" fill="#061C20" stroke="#2DFFD2" opacity=".9"/><text x="405" y="22" text-anchor="middle" class="tiny">Payload</text><text x="405" y="36" text-anchor="middle" class="tiny">Integrity</text><rect x="455" y="0" width="82" height="48" rx="8" fill="#061C20" stroke="#2DFFD2" opacity=".9"/><text x="496" y="22" text-anchor="middle" class="tiny">Rate</text><text x="496" y="36" text-anchor="middle" class="tiny">Limits</text><rect x="546" y="0" width="82" height="48" rx="8" fill="#061C20" stroke="#2DFFD2" opacity=".9"/><text x="587" y="22" text-anchor="middle" class="tiny">Geo/IP</text><text x="587" y="36" text-anchor="middle" class="tiny">Controls</text><rect x="637" y="0" width="82" height="48" rx="8" fill="#061C20" stroke="#2DFFD2" opacity=".9"/><text x="678" y="22" text-anchor="middle" class="tiny">Protocol</text><text x="678" y="36" text-anchor="middle" class="tiny">Rules</text><rect x="728" y="0" width="82" height="48" rx="8" fill="#061C20" stroke="#2DFFD2" opacity=".9"/><text x="769" y="22" text-anchor="middle" class="tiny">Request</text><text x="769" y="36" text-anchor="middle" class="tiny">Routing</text><rect x="819" y="0" width="82" height="48" rx="8" fill="#061C20" stroke="#2DFFD2" opacity=".9"/><text x="860" y="22" text-anchor="middle" class="tiny">Response</text><text x="860" y="36" text-anchor="middle" class="tiny">Hardening</text>
  </g>
  <line x1="765" y1="758" x2="765" y2="788" stroke="#2DFFD2" stroke-width="5" marker-end="url(#arrowCyan)"/>
  <rect x="290" y="790" width="950" height="72" class="greenBox"/><text x="765" y="818" font-size="19" text-anchor="middle" class="h green">ENTERPRISE SYSTEMS / AI AGENTS / LLM PLATFORMS</text><text x="765" y="844" font-size="13" text-anchor="middle" fill="#F5F7FF">Applications · Microservices · AI Agents · LLM Platforms · Datastores · Workflows · APIs · Third-Party Services</text>
  <rect x="1270" y="108" width="300" height="476" class="box" stroke="#B98C19"/><text x="1420" y="136" font-size="18" text-anchor="middle" class="h amber">CROSS-CUTTING SERVICES</text>
  <text x="1300" y="174" font-size="14" class="h amber">IDENTITY &amp; ACCESS</text><text x="1300" y="194" class="small">Entra ID · RBAC · least privilege</text><text x="1300" y="238" font-size="14" class="h amber">KEY MANAGEMENT</text><text x="1300" y="258" class="small">Key Vault · managed keys</text><text x="1300" y="302" font-size="14" class="h amber">NETWORK SECURITY</text><text x="1300" y="322" class="small">VNet · private endpoints · WAF</text><text x="1300" y="366" font-size="14" class="h amber">MONITORING &amp; SIEM</text><text x="1300" y="386" class="small">Azure Monitor · Sentinel alerts</text><text x="1300" y="430" font-size="14" class="h amber">AUTOMATION &amp; IaC</text><text x="1300" y="450" class="small">Bicep · CI/CD approvals</text><text x="1300" y="494" font-size="14" class="h amber">COMPLIANCE</text><text x="1300" y="514" class="small">SOC2 · ISO27001 · evidence</text><text x="1300" y="558" font-size="14" class="h amber">BACKUP &amp; DR</text><text x="1300" y="578" class="small">Multi-region · RTO/RPO ready</text>
  <rect x="1270" y="610" width="300" height="152" class="purpleBox"/><text x="1420" y="636" font-size="16" text-anchor="middle" class="h purple">DATA &amp; LOG FLOW (ONE WAY)</text><text x="1306" y="670" class="small">Events generated</text><text x="1306" y="696" class="small">Sent to WORM store</text><text x="1306" y="722" class="small">Immutable retention</text><text x="1306" y="748" class="small">Read-only evidence access</text>
  <rect x="24" y="804" width="244" height="72" class="box"/><text x="44" y="832" font-size="15" class="h">GOVERNANCE FIRST. ALWAYS.</text><text x="44" y="854" class="small green">✓ Truth: Resonance Engine</text><text x="44" y="872" class="small green">✓ Execution never decides</text>
  <rect x="340" y="808" width="820" height="68" class="purpleBox" opacity=".85"/><text x="750" y="832" text-anchor="middle" font-size="15" class="h">POLICY LIFECYCLE (HUMAN-IN-THE-LOOP)</text><text x="370" y="858" class="small purple">OBSERVE → ANALYZE → SUGGEST → REVIEW → APPROVE → DEPLOY → ENFORCE → AUDIT</text>
  <rect x="1220" y="792" width="350" height="90" class="cyanBox"/><text x="1395" y="820" text-anchor="middle" class="h cyan" font-size="15">ARCHITECTURAL PRINCIPLE</text><text x="1395" y="848" text-anchor="middle" class="h" font-size="17">INTELLIGENCE DEFINES POLICY.</text><text x="1395" y="870" text-anchor="middle" class="h" font-size="17">EXECUTION ENFORCES POLICY.</text>
</svg>